
<svg width="30" height="30" viewBox="0 0 30 30" fill="none" xmlns="http://www.w3.org/2000/svg">
<path d="M1.16154 28.6853C0.585867 28.1127 0.585867 27.1843 1.16154 26.6117L26.8729 1.03683C27.4486 0.464207 28.3819 0.464206 28.9576 1.03682C29.5333 1.60944 29.5333 2.53784 28.9576 3.11046L3.24625 28.6853C2.67057 29.2579 1.73722 29.2579 1.16154 28.6853Z" fill="#F60090"/>
<path d="M1.04232 1.31471C1.618 0.74209 2.55135 0.74209 3.12703 1.31471L28.8384 26.8896C29.4141 27.4622 29.4141 28.3906 28.8384 28.9632C28.2627 29.5358 27.3294 29.5358 26.7537 28.9632L1.04232 3.38835C0.466647 2.81573 0.466646 1.88733 1.04232 1.31471Z" fill="#F60090"/>
</svg>
